<?xml version="1.0" standalone="no"?>
<!DOCTYPE svg PUBLIC "-//W3C//DTD SVG 20010904//EN"
 "http://www.w3.org/TR/2001/REC-SVG-20010904/DTD/svg10.dtd">
<svg version="1.0" xmlns="http://www.w3.org/2000/svg"
 width="500.000000pt" height="500.000000pt" viewBox="0 0 500.000000 500.000000"
 preserveAspectRatio="xMidYMid meet">

<g transform="translate(0.000000,500.000000) scale(0.100000,-0.100000)"
fill="#000000" stroke="none">
<path d="M2345 3674 c-66 -25 -230 -88 -365 -141 -135 -53 -262 -103 -283
-111 -30 -11 -37 -19 -35 -36 2 -17 33 -32 170 -86 l168 -65 0 -145 c0 -118 3
-151 18 -180 40 -80 211 -138 432 -147 216 -9 397 31 481 106 l44 39 5 163 5
164 115 47 c63 26 121 47 128 47 9 1 12 -30 12 -121 0 -67 2 -119 4 -117 3 3
6 59 7 127 l2 122 36 17 c43 22 52 49 19 62 -13 5 -79 30 -148 56 -215 82
-431 164 -538 205 -57 22 -115 40 -130 39 -15 0 -81 -20 -147 -45z m221 -214
c6 -6 95 -17 200 -25 293 -23 446 -44 466 -62 21 -19 16 -32 -5 -14 -16 13
-76 21 -408 55 -220 22 -295 24 -284 7 7 -12 -95 -5 -107 7 -8 8 -8 15 2 27
14 17 120 21 136 5z m414 -185 c0 -9 -79 -45 -97 -45 -10 0 7 11 37 24 30 13
56 24 58 25 1 0 2 -1 2 -4z m-880 -35 c13 -9 13 -10 0 -10 -8 0 -22 5 -30 10
-13 9 -13 10 0 10 8 0 22 -5 30 -10z m205 -81 c7 -8 3 -9 -13 -4 -33 10 -112
45 -112 50 0 7 114 -35 125 -46z m440 16 c-27 -13 -56 -24 -63 -24 -7 -1 -34
-12 -60 -25 -47 -23 -122 -46 -92 -27 13 8 180 76 230 94 39 14 30 3 -15 -18z
m-395 -35 c0 -5 -7 -7 -15 -4 -8 4 -15 8 -15 10 0 2 7 4 15 4 8 0 15 -4 15
-10z m90 -37 c10 -9 1 -8 -28 3 -23 10 -42 21 -42 25 0 10 49 -10 70 -28z m57
-9 c-3 -3 -12 -4 -19 -1 -8 3 -5 6 6 6 11 1 17 -2 13 -5z"/>
<path d="M1580 3090 c-23 -23 -24 -33 -10 -61 12 -22 59 -26 78 -7 17 17 15
54 -4 72 -21 21 -40 20 -64 -4z"/>
<path d="M3267 3004 c-10 -13 -23 -23 -30 -21 -16 3 -17 -65 0 -82 12 -11 13
-9 9 12 -7 39 7 42 21 5 l12 -33 -5 40 c-3 22 -1 53 5 69 15 37 11 40 -12 10z"/>
<path d="M3280 2767 c0 -88 3 -117 13 -117 10 0 11 24 5 112 -4 61 -10 114
-13 116 -3 3 -5 -47 -5 -111z"/>
<path d="M3223 2690 c0 -25 2 -35 4 -22 2 12 2 32 0 45 -2 12 -4 2 -4 -23z"/>
<path d="M1606 2685 c-3 -9 -6 -22 -5 -28 0 -7 5 -1 10 12 5 13 8 26 5 28 -2
2 -6 -3 -10 -12z"/>
<path d="M1946 2674 c-9 -8 -16 -19 -16 -24 0 -5 -15 -10 -32 -12 -21 -2 -33
-8 -33 -18 0 -12 21 -16 118 -18 64 -1 117 1 117 5 0 5 -17 17 -37 28 -21 11
-49 27 -62 37 -29 22 -35 22 -55 2z m29 -34 c-3 -5 -12 -10 -18 -10 -7 0 -6 4
3 10 19 12 23 12 15 0z"/>
<path d="M3252 2660 c0 -14 2 -19 5 -12 2 6 2 18 0 25 -3 6 -5 1 -5 -13z"/>
<path d="M1585 2600 c-4 -23 -5 -43 -2 -46 2 -3 7 14 11 37 4 23 5 44 2 46 -2
2 -7 -14 -11 -37z"/>
<path d="M3095 2499 l-28 -82 22 -19 c30 -23 56 -23 81 2 20 20 20 20 -6 92
-14 40 -29 76 -33 81 -4 4 -20 -29 -36 -74z"/>
<path d="M1461 2554 c0 -11 3 -14 6 -6 3 7 2 16 -1 19 -3 4 -6 -2 -5 -13z"/>
<path d="M1750 2529 c-113 -74 -163 -154 -164 -266 -1 -40 -4 -69 -7 -65 -10
10 -77 222 -90 282 -6 28 -13 49 -15 47 -4 -4 13 -89 33 -157 l7 -25 -32 27
c-30 25 -88 46 -99 35 -6 -7 15 -47 40 -75 12 -12 38 -25 59 -28 42 -7 53 -17
63 -57 7 -27 -2 -35 -20 -18 -13 12 -113 41 -142 41 -27 0 -26 -13 9 -108 25
-68 66 -106 149 -141 61 -26 69 -27 94 -14 26 14 27 17 21 67 l-7 52 57 39
c47 33 63 51 87 103 29 61 30 68 24 169 -3 58 -9 108 -13 113 -5 4 -29 -6 -54
-21z"/>
<path d="M3534 2532 c-63 -46 -74 -67 -74 -142 0 -59 -4 -71 -37 -120 -21 -30
-50 -77 -65 -105 -24 -43 -28 -46 -28 -24 0 15 7 43 15 62 29 71 15 140 -43
207 l-30 35 -13 -30 c-6 -16 -14 -55 -17 -86 -5 -62 9 -98 52 -138 19 -18 26
-35 26 -60 0 -40 -22 -141 -30 -141 -3 0 -28 41 -55 90 -26 50 -54 95 -61 101
-10 8 -31 1 -85 -30 -39 -23 -73 -41 -75 -41 -2 0 -4 57 -4 128 0 70 -4 133
-8 139 -4 7 -22 16 -40 19 l-32 6 -2 -408 -3 -409 -237 -3 -238 -2 -1 -143 0
-142 -31 38 -32 37 -38 -37 -38 -37 0 142 0 141 -142 3 -143 3 0 403 0 402
-32 0 c-44 0 -55 -25 -51 -116 2 -41 -1 -74 -5 -74 -5 0 -22 9 -38 21 -16 11
-36 19 -43 16 -15 -6 -108 -144 -134 -199 -2 -5 13 -8 33 -8 60 0 131 -45 161
-102 18 -35 18 -141 0 -177 -8 -15 -31 -42 -50 -58 -100 -89 -258 -59 -310 57
-14 33 -30 53 -49 61 -15 6 -29 10 -31 8 -5 -5 110 -177 139 -210 54 -60 223
-190 303 -232 114 -60 303 -122 418 -138 133 -17 327 -7 446 25 109 29 251 87
335 138 57 34 245 189 239 196 -3 2 -31 3 -64 3 -52 0 -67 5 -102 30 -97 71
-95 227 3 288 44 27 107 36 152 21 48 -16 73 -8 128 40 45 40 87 122 87 172 0
19 -4 20 -56 14 -67 -8 -103 -25 -138 -66 -14 -18 -26 -29 -26 -27 0 15 44
106 70 144 17 24 30 47 30 52 0 4 11 18 25 31 19 18 22 26 13 32 -9 5 2 22 39
56 55 50 66 76 61 136 l-3 38 -41 -30z m-1463 -1155 c-13 -13 -26 -3 -16 12 3
6 11 8 17 5 6 -4 6 -10 -1 -17z m709 -22 c0 -8 -4 -15 -9 -15 -13 0 -22 16
-14 24 11 11 23 6 23 -9z"/>
<path d="M1573 2495 c0 -27 2 -38 4 -22 2 15 2 37 0 50 -2 12 -4 0 -4 -28z"/>
<path d="M1563 2380 c0 -25 2 -35 4 -22 2 12 2 32 0 45 -2 12 -4 2 -4 -23z"/>
<path d="M3500 2293 l-44 -27 29 -8 c38 -10 77 -2 110 23 56 45 -24 54 -95 12z"/>
<path d="M3362 1774 c-1 -13 0 -24 2 -24 7 0 14 40 7 44 -4 3 -8 -6 -9 -20z"/>
<path d="M1600 1762 c0 -18 64 -82 82 -82 7 0 -1 9 -19 20 -17 10 -39 32 -47
47 -8 15 -15 22 -16 15z"/>
<path d="M1849 1753 c-13 -16 -12 -17 4 -4 9 7 17 15 17 17 0 8 -8 3 -21 -13z"/>
<path d="M1819 1713 c-13 -16 -12 -17 4 -4 9 7 17 15 17 17 0 8 -8 3 -21 -13z"/>
<path d="M3208 1718 c13 -6 35 -34 48 -61 14 -27 27 -47 30 -44 2 2 -8 28 -24
58 -21 40 -35 55 -53 56 l-24 3 23 -12z"/>
<path d="M3326 1672 c-32 -65 -29 -79 4 -19 12 23 32 50 44 59 l21 17 -21 -2
c-16 -1 -29 -17 -48 -55z"/>
<path d="M1785 1691 c-6 -5 -26 -11 -45 -14 l-35 -4 36 -1 c22 -1 42 4 49 13
14 16 10 21 -5 6z"/>
<path d="M2342 1683 c-36 -4 -42 -7 -31 -19 6 -8 21 -14 33 -14 17 0 18 2 6
10 -11 7 -2 9 32 8 26 -1 45 -5 42 -10 -3 -4 2 -8 10 -8 9 0 15 6 14 13 -2 7
14 14 42 18 36 5 29 6 -30 6 -41 0 -94 -2 -118 -4z"/>
<path d="M2568 1673 c6 -2 18 -2 25 0 6 3 1 5 -13 5 -14 0 -19 -2 -12 -5z"/>
</g>
</svg>
